<?xml version="1.0" encoding="UTF-8"?>
<svg width="350px" height="350px" viewBox="0 0 350 350" version="1.1" xmlns="http://www.w3.org/2000/svg" xmlns:xlink="http://www.w3.org/1999/xlink">
    <title>logo_verti_white_bgtransparent</title>
    <defs>
        <polygon id="path-1" points="0 0 81.5750853 0 81.5750853 110.659766 0 110.659766"></polygon>
        <polygon id="path-3" points="0 0 47.1116664 0 47.1116664 70.5746921 0 70.5746921"></polygon>
        <polygon id="path-5" points="0 200 279.671604 200 279.671604 0 0 0"></polygon>
    </defs>
    <g id="logo_verti_white_bgtransparent" stroke="none" stroke-width="1" fill="none" fill-rule="evenodd">
        <g id="Group-20" transform="translate(35, 76)">
            <path d="M103.135225,5.89624606 L101.112499,4.46249033 L100.44024,6.69938723 C91.5105003,36.4632042 108.715569,50.2474865 116.526861,54.7867214 L118.210482,55.7683384 L118.960081,54.1085133 C126.872509,36.516747 120.95901,18.4966387 103.135225,5.89624606" id="Fill-1" fill="#FFFFFF"></path>
            <g id="Group-5" transform="translate(128.269, 0)">
                <mask id="mask-2" fill="white">
                    <use xlink:href="#path-1"></use>
                </mask>
                <g id="Clip-4"></g>
                <path d="M32.0480462,102.259504 C22.713761,105.971801 15.0511993,106.287108 11.0771378,105.811173 C11.1485281,103.54453 11.4578862,101.248141 11.8743298,98.951752 C17.5974543,98.4758165 27.7527282,92.9073711 36.1053964,83.5195431 C37.8842054,81.520614 39.5618781,79.3789042 41.0908209,77.1598548 C45.2314599,71.1571182 49.348302,62.9234339 51.7517764,52.1970373 C59.2358623,49.2283896 67.237528,47.6221072 75.4712124,47.5745137 C65.3218876,82.4546374 46.3618067,96.5661253 32.0480462,102.259504 M46.2428228,54.6956987 C44.2498429,61.9358677 41.2930935,68.6108632 37.2357433,74.5005652 C35.8138859,76.5589863 34.2551971,78.546017 32.6013212,80.4021655 C25.3314063,88.5823071 17.2999946,92.9490154 13.0106258,94.0436671 C15.8364929,84.1204117 21.6667029,74.3577845 29.8765904,66.3858647 C34.8144214,61.5908144 40.3352733,57.7000416 46.2428228,54.6956987 M8.45354327,46.6285918 C14.8608251,28.162294 28.2465113,13.9080255 46.1595341,6.44773633 C49.621965,21.9989291 49.9967642,36.2769945 47.5635439,48.9309299 C39.9366773,52.3041228 32.8273906,56.9801892 26.610483,63.0245702 C18.4243922,70.9786424 12.403808,80.6341841 9.14364976,90.5871854 C3.52761074,77.8678089 3.18255749,61.7990362 8.45354327,46.6285918 M52.7631393,46.8606104 C54.5359991,35.527396 54.3991676,21.7431138 50.6690231,5.12701529 L49.5208287,-0.00118983878 L44.6603373,1.99773931 C25.3492539,9.93991314 10.9165095,25.247189 4.02734302,45.0877506 C-2.23120894,63.0900113 -1.14250646,82.412993 6.92460044,96.7743471 L7.37078998,97.5655899 C6.71042946,100.998275 6.32968105,104.43096 6.37727461,107.798203 L6.40702058,109.582962 L8.1322868,110.029151 C9.48275381,110.386103 11.5709209,110.659766 14.2361597,110.659766 C19.1204479,110.659766 25.9441733,109.731691 33.7792616,106.614314 C49.4791843,100.373609 70.3846516,84.7688738 80.8135885,45.8908918 L81.5750853,43.0531263 L78.6421327,42.9400916 C69.6945451,42.5950384 60.9730269,43.9930989 52.7631393,46.8606104" id="Fill-3" fill="#FFFFFF" mask="url(#mask-2)"></path>
            </g>
            <path d="M59.2004283,38.103397 C64.2929383,69.8839907 92.4564222,98.428223 121.03635,97.0301624 C120.459278,69.4734963 91.5759415,39.3646261 59.2004283,38.103397" id="Fill-6" fill="#FFFFFF"></path>
            <path d="M15.6071152,169.443155 C16.6482242,162.536141 20.907847,159.793563 25.6374561,159.793563 C31.1226129,159.793563 34.9063002,164.053186 35.1918615,169.443155 L15.6071152,169.443155 Z M25.4470819,146.169909 C10.0267714,146.169909 0.00237967755,157.520971 0.00237967755,172.846094 C0.00237967755,190.538997 11.8234279,199.998215 30.3670653,199.998215 C35.9474091,199.998215 41.0577667,199.337855 45.5970016,197.731572 L44.3655185,186.094949 C40.9625796,187.326432 37.3692665,187.891606 33.0144565,187.891606 C24.1204117,187.891606 18.2545065,184.958653 16.3686121,178.432387 L48.5299542,178.432387 C48.9047534,176.724969 49.0058897,174.458326 49.0058897,172.376108 C49.0058897,158.466893 41.1529538,146.169909 25.4470819,146.169909 L25.4470819,146.169909 Z" id="Fill-8" fill="#FFFFFF"></path>
            <g id="Group-12" transform="translate(58.2593, 129.4253)">
                <mask id="mask-4" fill="white">
                    <use xlink:href="#path-3"></use>
                </mask>
                <g id="Clip-11"></g>
                <path d="M25.9206378,29.0439645 C18.0677018,27.247308 15.7058719,25.5398893 15.7058719,22.4225117 C15.7058719,18.7340115 19.0136237,16.5566066 25.6350764,16.5566066 C31.7865429,16.5566066 36.9861384,17.6929026 42.3820572,19.3943721 L43.232792,3.31370099 C37.9320602,1.13629603 33.2024511,0 24.7843417,0 C7.47218752,0 0,9.26884407 0,21.571777 C0,34.2495092 7.47218752,39.4491046 20.5247189,42.2868701 C28.0980427,43.9883396 31.4057945,45.6957582 31.4057945,49.5746326 C31.4057945,53.6379321 27.6221072,56.0057112 19.9595455,56.0057112 C12.6777322,56.0057112 5.96109227,54.3994289 1.51109525,52.5075852 L0.755547623,66.7915997 C6.43107859,68.9630555 11.2558748,70.575287 20.9054673,70.575287 C39.1635433,70.575287 47.1116664,61.3004938 47.1116664,49.1938842 C47.1116664,36.7065263 39.2587304,31.9769171 25.9206378,29.0439645" id="Fill-10" fill="#FFFFFF" mask="url(#mask-4)"></path>
            </g>
            <path d="M140.639538,186.470938 C134.018086,186.470938 129.098102,181.550955 129.098102,173.888393 C129.098102,166.511393 133.922898,161.210661 140.639538,161.210661 C147.260991,161.210661 152.276162,166.511393 152.276162,173.888393 C152.276162,181.550955 147.356178,186.470938 140.639538,186.470938 M140.639538,146.171099 C124.743292,146.171099 113.677792,157.426974 113.677792,173.037658 C113.677792,188.553156 124.838479,199.999405 140.639538,199.999405 C156.625022,199.999405 167.601285,188.553156 167.601285,173.037658 C167.601285,157.426974 156.625022,146.171099 140.639538,146.171099" id="Fill-13" fill="#FFFFFF"></path>
            <mask id="mask-6" fill="white">
                <use xlink:href="#path-5"></use>
            </mask>
            <g id="Clip-16"></g>
            <polygon id="Fill-15" fill="#FFFFFF" mask="url(#mask-6)" points="179.219466 198.768517 193.884229 198.768517 193.884229 126.872509 179.219466 126.872509"></polygon>
            <path d="M215.53751,125.073473 C210.337914,125.073473 206.548278,128.482361 206.548278,133.777143 C206.548278,139.071926 210.427152,142.480814 215.53751,142.480814 C220.647867,142.480814 224.526742,139.071926 224.526742,133.777143 C224.526742,128.482361 220.838241,125.073473 215.53751,125.073473" id="Fill-17" fill="#FFFFFF" mask="url(#mask-6)"></path>
            <polygon id="Fill-18" fill="#FFFFFF" mask="url(#mask-6)" points="208.251532 198.768517 222.916295 198.768517 222.916295 147.403177 208.251532 147.403177"></polygon>
            <path d="M264.725445,184.768279 C263.303587,187.891606 260.275448,190.44381 256.111012,190.44381 C252.523648,190.44381 249.679933,188.837528 249.679933,185.428639 C249.679933,181.174966 252.708073,179.943483 257.628056,178.807187 C260.751383,178.146826 263.2084,177.200904 264.725445,176.445357 L264.725445,184.768279 Z M256.682135,146.169909 C248.829199,146.169909 242.118508,148.061753 237.668511,150.429532 L238.70962,165.094295 C243.248855,163.012077 249.019573,161.209471 255.16509,161.209471 C261.506931,161.209471 264.53507,163.107264 264.53507,166.129454 C264.53507,167.456125 264.154322,168.211672 262.54804,168.872033 C260.561009,169.63353 258.288417,170.198703 254.12993,170.954251 C243.153668,172.756856 234.35481,175.969421 234.35481,186.939735 C234.35481,195.554167 240.506276,199.998215 249.019573,199.998215 C256.586947,199.998215 260.941757,197.065263 264.725445,192.526028 L264.725445,198.766732 L279.66982,198.766732 L279.66982,167.456125 C279.66982,153.642096 272.768755,146.169909 256.682135,146.169909 L256.682135,146.169909 Z" id="Fill-19" fill="#FFFFFF" mask="url(#mask-6)"></path>
        </g>
    </g>
</svg>