<?xml version="1.0" encoding="UTF-8"?>
<svg width="170px" height="170px" viewBox="0 0 170 170" version="1.1" xmlns="http://www.w3.org/2000/svg" xmlns:xlink="http://www.w3.org/1999/xlink">
    <title>symbol_white_bgtransparent</title>
    <defs>
        <polygon id="path-1" points="0 0 74.6633584 0 74.6633584 101.29 0 101.29"></polygon>
    </defs>
    <g id="symbol_white_bgtransparent" stroke="none" stroke-width="1" fill="none" fill-rule="evenodd">
        <g id="Group-8" transform="translate(16, 34)">
            <path d="M40.21378,5.39748659 L38.3623419,4.0851437 L37.747011,6.13261642 C29.5734563,33.3759834 45.3215709,45.9929895 52.4713892,50.1478344 L54.0124392,51.0463264 L54.6985603,49.5270581 C61.9409505,33.4249921 56.5282168,16.9308568 40.21378,5.39748659" id="Fill-1" fill="#FFFFFF"></path>
            <g id="Group-5" transform="translate(63.2198, 0)">
                <mask id="mask-2" fill="white">
                    <use xlink:href="#path-1"></use>
                </mask>
                <g id="Clip-4"></g>
                <path d="M29.3341639,93.6010865 C20.7903216,96.9990199 13.7766385,97.2876265 10.1391072,96.851994 C10.204452,94.7772942 10.4876131,92.6753675 10.8687916,90.5734407 C16.1072723,90.1378082 25.4025806,85.040908 33.0479309,76.4480571 C34.6761073,74.6184006 36.2117119,72.6580544 37.6111812,70.6269179 C41.4011839,65.1325031 45.169405,57.596061 47.3693491,47.7779937 C54.21967,45.060736 61.5437413,43.5904763 69.0801834,43.5469131 C59.7903205,75.4733294 42.4358111,88.3898328 29.3341639,93.6010865 M42.326903,50.0650642 C40.5026919,56.6921235 37.796325,62.8018693 34.082558,68.1928214 C32.781106,70.0769319 31.3544096,71.8956975 29.8405866,73.5946643 C23.1863003,81.0820977 15.835002,85.0790259 11.9088642,86.0809806 C14.4954321,76.9980431 19.8319301,68.0621316 27.3465906,60.7652874 C31.8662777,56.37629 36.9196147,52.8149944 42.326903,50.0650642 M7.73768304,42.6810935 C13.6023855,25.7785528 25.8545493,12.7313596 42.2506673,5.90282028 C45.4198937,20.137112 45.7629543,33.2060868 43.5357831,44.7884657 C36.5547724,47.876011 30.0475121,52.1561002 24.3570626,57.6886329 C16.8641838,64.9691409 11.3534327,73.8070351 8.36935015,82.9171996 C3.22888674,71.2749212 2.91305318,56.5668792 7.73768304,42.6810935 M48.2950681,42.8934643 C49.9177992,32.5199656 49.7925548,19.9029595 46.3782852,4.69394011 L45.3273218,0 L40.8784249,1.82965647 C23.2026365,9.09927369 9.99208119,23.1103037 3.68630085,41.2707333 C-2.04226643,57.7485323 -1.0457571,75.4352115 6.33821366,88.580422 L6.74661912,89.304661 C6.14217903,92.4466604 5.79367304,95.5886597 5.83723629,98.6707596 L5.86446332,100.304381 L7.44363111,100.712787 C8.6797383,101.039511 10.5910759,101.29 13.0306178,101.29 C17.5012963,101.29 23.7471772,100.440517 30.9187771,97.5871238 C45.2892039,91.8748927 64.4243612,77.5915924 73.9701582,42.0058631 L74.6671702,39.4084044 L71.9825849,39.3049417 C63.7926941,38.9891081 55.8097286,40.2687786 48.2950681,42.8934643" id="Fill-3" fill="#FFFFFF" mask="url(#mask-2)"></path>
            </g>
            <path d="M0,34.8772819 C4.66126767,63.9666416 30.4398204,90.0937004 56.5995516,88.8140299 C56.0713472,63.5909086 29.6339003,36.031708 0,34.8772819" id="Fill-6" fill="#FFFFFF"></path>
        </g>
    </g>
</svg>